<?xml version="1.0" encoding="UTF-8"?>
<svg version="1.1" xmlns="http://www.w3.org/2000/svg" width="500" height="500">
<path d="M0 0 C165 0 330 0 500 0 C500 165 500 330 500 500 C335 500 170 500 0 500 C0 335 0 170 0 0 Z " fill="#FEFEFE" transform="translate(0,0)"/>
<path d="M0 0 C7.76340152 4.65804091 11.92181141 13.73749377 15 22 C18.97788672 38.57131954 17.64671648 58.70656703 10 74 C7.796875 76.96875 7.796875 76.96875 6 79 C3.16744776 75.81431666 2.62522414 73.76449343 2.59375 69.53515625 C2.57183594 68.48779297 2.54992187 67.44042969 2.52734375 66.36132812 C2.51832031 65.27271484 2.50929688 64.18410156 2.5 63.0625 C2.48207285 60.90740007 2.45127762 58.75236031 2.40625 56.59765625 C2.39916016 55.64383057 2.39207031 54.69000488 2.38476562 53.70727539 C1.92968437 50.50524744 0.87026129 48.61613249 -1 46 C-5.07523552 43.26661032 -9.26393433 43.39522876 -14 44 C-22.11443488 46.34767145 -28.64078372 53.2154081 -34.09765625 59.36328125 C-39.59371957 65.5149386 -39.59371957 65.5149386 -44.375 65.875 C-53.8359795 64.91918187 -61.43858028 57.22460595 -68.38085938 51.36279297 C-71.52481498 48.71659873 -74.6960424 46.10398355 -77.875 43.5 C-78.54998535 42.94650879 -79.2249707 42.39301758 -79.92041016 41.82275391 C-85.31424538 37.44857167 -90.90935999 33.50710554 -96.71875 29.70703125 C-97.4715625 29.14371094 -98.224375 28.58039063 -99 28 C-99 27.34 -99 26.68 -99 26 C-101.72943537 25.94583259 -104.45778564 25.90624775 -107.1875 25.875 C-107.95642578 25.85824219 -108.72535156 25.84148437 -109.51757812 25.82421875 C-113.77416361 25.78768154 -117.16969953 25.89665581 -121 28 C-124.28497937 33.09171802 -124.22703869 38.21576587 -124.25 44.0625 C-124.25394775 44.91779297 -124.25789551 45.77308594 -124.26196289 46.65429688 C-124.21077718 52.20557135 -123.64801041 56.98717408 -121.55859375 62.1875 C-121 64 -121 64 -122 67 C-133.27258676 39.07184967 -133.27258676 39.07184967 -133.5625 25.125 C-133.58948975 24.3400415 -133.61647949 23.55508301 -133.64428711 22.74633789 C-133.59954544 16.05284158 -131.18571199 11.22065206 -126.48632812 6.46972656 C-120.68904231 1.43639582 -116.22802128 0.36390321 -108.640625 0.5 C-96.26747828 2.19931629 -86.44468879 11.05668084 -77.58984375 19.22265625 C-60.81382955 34.76292333 -60.81382955 34.76292333 -39.6875 41.5 C-34.5065481 41.21994855 -30.70176928 39.70176928 -27 36 C-26.484375 36.804375 -25.96875 37.60875 -25.4375 38.4375 C-23.14985844 41.26042317 -23.14985844 41.26042317 -19.5625 42.0625 C-15.98296252 42.27898875 -15.98296252 42.27898875 -13.1875 40.4375 C-8.56690522 35.28883724 -8.57256124 29.63839712 -8.671875 22.984375 C-9.24521456 17.76971515 -11.25949182 13.74050818 -15 10 C-14.73455195 6.15100331 -12.49088358 3.79280886 -10 1 C-6.75617735 -0.62191133 -3.50635837 -0.55156199 0 0 Z " fill="#36BBBD" transform="translate(308,166)"/>
<path d="M0 0 C4.08209427 2.07815708 6.3373544 3.75148808 8 8 C8.28710938 10.57788086 8.28710938 10.57788086 8.34375 13.46484375 C8.37339844 14.51220703 8.40304687 15.55957031 8.43359375 16.63867188 C8.45550781 17.72728516 8.47742188 18.81589844 8.5 19.9375 C8.54353813 22.0926375 8.59532994 24.24762754 8.65625 26.40234375 C8.68428711 27.83308228 8.68428711 27.83308228 8.71289062 29.29272461 C8.86730072 32.06094777 8.86730072 32.06094777 10.15966797 34.62792969 C11 37 11 37 10.21728516 38.8527832 C9.51031494 39.69329224 9.51031494 39.69329224 8.7890625 40.55078125 C8.03496094 41.47407227 8.03496094 41.47407227 7.265625 42.41601562 C6.72421875 43.04185547 6.1828125 43.66769531 5.625 44.3125 C5.09132813 44.95767578 4.55765625 45.60285156 4.0078125 46.26757812 C2.68792913 47.85850898 1.34598952 49.43109423 0 51 C-1.13363681 47.59908956 -0.72332436 46.42835929 0 43 C0.08982442 40.91818698 0.13013237 38.83374364 0.125 36.75 C0.12757813 35.69296875 0.13015625 34.6359375 0.1328125 33.546875 C0.28828538 31.06517749 0.28828538 31.06517749 -1 30 C-9.15056549 28.76972596 -14.42443083 32.48505505 -21 37 C-26.73923332 41.24060999 -31.980669 45.95388353 -37.14624023 50.86328125 C-49.15490411 62.25489915 -60.0381507 70.59073941 -77.19287109 70.41577148 C-86.90798446 70.04087863 -91.7182848 65.70714412 -98.80078125 59.4140625 C-101.21806912 56.7606275 -102.47200216 54.23624208 -104 51 C-104.64324219 50.05511719 -105.28648437 49.11023438 -105.94921875 48.13671875 C-108.32885227 44.49701263 -110.07891314 40.78912102 -111.8125 36.8125 C-112.13669922 36.10158203 -112.46089844 35.39066406 -112.79492188 34.65820312 C-115.12109692 29.36329076 -115.12109692 29.36329076 -114 26 C-113.18208984 27.32451172 -113.18208984 27.32451172 -112.34765625 28.67578125 C-102.37316314 45.6581948 -102.37316314 45.6581948 -87 57 C-78.57941131 58.5517616 -72.03197379 56.63907099 -65 52 C-55.85166196 45.62302866 -48.86951554 37.63976536 -42 28.9375 C-37.76331463 23.71449634 -33.16281741 18.90800549 -28.4375 14.125 C-27.72916016 13.39917725 -27.02082031 12.67335449 -26.29101562 11.92553711 C-18.65865563 4.30113486 -11.24061461 -1.40028134 0 0 Z " fill="#F1404D" transform="translate(303,209)"/>
<path d="M0 0 C4.06105747 2.06744744 6.39479481 3.73917886 8 8 C8.1953125 11.015625 8.1953125 11.015625 8.125 14.25 C8.10695313 15.32765625 8.08890625 16.4053125 8.0703125 17.515625 C8.04710937 18.33546875 8.02390625 19.1553125 8 20 C7.67 20 7.34 20 7 20 C6.690625 18.3603125 6.690625 18.3603125 6.375 16.6875 C5.33914363 12.86619937 5.33914363 12.86619937 2.3125 11.0625 C-3.44815886 9.2147415 -8.21809771 9.51098942 -13.83984375 11.83984375 C-25.33827321 18.01531129 -34.41409024 28.89521347 -42.44140625 38.92578125 C-45.57373716 42.68936053 -48.85371508 46.28991378 -52.1875 49.875 C-52.76983398 50.50559326 -53.35216797 51.13618652 -53.95214844 51.78588867 C-60.39808509 58.66565117 -67.12270551 65.34501957 -76.953125 66.28125 C-84.28397436 66.35801282 -84.28397436 66.35801282 -87 65 C-86.67 65.99 -86.34 66.98 -86 68 C-90.14502911 66.6034669 -92.88147174 64.66619972 -96.125 61.75 C-96.97320312 61.00234375 -97.82140625 60.2546875 -98.6953125 59.484375 C-101.18805612 56.79728188 -102.44800821 54.30532306 -104 51 C-104.64324219 50.05511719 -105.28648437 49.11023438 -105.94921875 48.13671875 C-108.32885227 44.49701263 -110.07891314 40.78912102 -111.8125 36.8125 C-112.13669922 36.10158203 -112.46089844 35.39066406 -112.79492188 34.65820312 C-115.12109692 29.36329076 -115.12109692 29.36329076 -114 26 C-113.18208984 27.32451172 -113.18208984 27.32451172 -112.34765625 28.67578125 C-102.37316314 45.6581948 -102.37316314 45.6581948 -87 57 C-78.57941131 58.5517616 -72.03197379 56.63907099 -65 52 C-55.85166196 45.62302866 -48.86951554 37.63976536 -42 28.9375 C-37.76331463 23.71449634 -33.16281741 18.90800549 -28.4375 14.125 C-27.72916016 13.39917725 -27.02082031 12.67335449 -26.29101562 11.92553711 C-18.65865563 4.30113486 -11.24061461 -1.40028134 0 0 Z " fill="#E64E64" transform="translate(303,209)"/>
<path d="M0 0 C9.07334504 4.31683376 16.4679869 10.18150352 23.83203125 16.97265625 C40.64988977 32.59741109 40.64988977 32.59741109 61.859375 39.125 C64.84470432 38.99712757 67.54412436 38.54973936 70.421875 37.75 C70.091875 38.74 69.761875 39.73 69.421875 40.75 C70.081875 41.08 70.741875 41.41 71.421875 41.75 C67.67693132 45.46498413 63.84539807 45.32328019 58.859375 45.5 C58.09173828 45.54253906 57.32410156 45.58507812 56.53320312 45.62890625 C47.73897964 46.04293246 41.00236422 41.87622583 34.53125 36.046875 C33.44349526 34.91687736 32.36291557 33.77993554 31.2890625 32.63671875 C20.22440655 21.45632372 5.13096241 9.94323853 -11.140625 9.4375 C-17.45130103 9.58425991 -20.86861629 11.00163881 -25.328125 15.5625 C-29.19103149 21.03495086 -29.90520639 26.24512006 -30.578125 32.75 C-30.908125 32.75 -31.238125 32.75 -31.578125 32.75 C-31.71428419 29.74844627 -31.8127648 26.753179 -31.890625 23.75 C-31.9534668 22.49123047 -31.9534668 22.49123047 -32.01757812 21.20703125 C-32.14185488 14.79435051 -30.66058194 10.71097859 -26.578125 5.75 C-18.9517037 -1.93788504 -10.3045996 -3.59986012 0 0 Z " fill="#46C6C3" transform="translate(206.578125,168.25)"/>
<path d="M0 0 C7.76340152 4.65804091 11.92181141 13.73749377 15 22 C18.97788672 38.57131954 17.64671648 58.70656703 10 74 C7.796875 76.96875 7.796875 76.96875 6 79 C5.34 78.01 4.68 77.02 4 76 C4.8984375 73.453125 4.8984375 73.453125 6.375 70.25 C8.99389779 63.40938172 9.50577246 57.30331661 9.5 50 C9.50563965 49.0090332 9.5112793 48.01806641 9.51708984 46.99707031 C9.40511944 40.34444499 8.51628339 35.7383084 3.875 30.6875 C-0.00370291 28.41087003 -3.56690069 28.19316337 -8 28 C-8.14695312 26.91332031 -8.14695312 26.91332031 -8.296875 25.8046875 C-9.23215532 19.75761645 -10.3252443 15.86016077 -14 11 C-15.0625 9 -15.0625 9 -15 7 C-10.64246681 0.99367046 -7.50270753 -1.18020119 0 0 Z " fill="#2C89DD" transform="translate(308,166)"/>
<path d="M0 0 C4.08239773 0.73483159 6.47254744 2.49535722 9.125 5.5625 C13.04892797 11.97158235 13.29761681 19.47207042 11.62109375 26.75 C10.07671437 30.84481163 7.94623581 33.47818956 4.125 35.5625 C0.42791788 35.76415902 -1.78682033 35.51922172 -4.62109375 33.02734375 C-9.03102454 28.04634279 -10.03939839 24.44832601 -10.125 17.75 C-10.15078125 16.54730469 -10.1765625 15.34460938 -10.203125 14.10546875 C-9.75338382 9.24933477 -7.98800738 6.02092346 -5.0625 2.1875 C-2.875 0.5625 -2.875 0.5625 0 0 Z " fill="#FD820B" transform="translate(287.875,173.4375)"/>
<path d="M0 0 C3.57545601 1.787728 5.55432819 3.37605946 7.875 6.625 C9.39590225 11.18770674 9.70459836 15.23815396 9 20 C7.04140138 23.84724728 4.9317043 27.08727899 1 29 C-2.8083317 29.65535345 -6.32186162 29.83019954 -9.84765625 28.0859375 C-13.54638052 25.26872736 -15.12040779 22.48592027 -16 18 C-16.61376722 11.55544422 -15.81410972 8.25728637 -12 3 C-8.12997431 -0.24245395 -4.96691561 -0.60997209 0 0 Z " fill="#5AC8C6" transform="translate(296,298)"/>
<path d="M0 0 C5.99939443 0.10343783 9.07712664 1.27746075 13.5546875 5.234375 C17.82306698 10.44871966 17.42100578 16.54547289 17.4375 22.9375 C17.44330078 24.4699939 17.44330078 24.4699939 17.44921875 26.03344727 C17.32004556 34.55282251 15.7179248 41.33841924 12 49 C11.34 48.67 10.68 48.34 10 48 C9.98541748 47.29915283 9.97083496 46.59830566 9.95581055 45.8762207 C9.88114513 42.68776991 9.78454525 39.50034487 9.6875 36.3125 C9.66494141 35.20970703 9.64238281 34.10691406 9.61914062 32.97070312 C9.58369141 31.90400391 9.54824219 30.83730469 9.51171875 29.73828125 C9.48553467 28.75899658 9.45935059 27.77971191 9.43237305 26.77075195 C8.93093849 23.55743701 7.88073196 21.63238848 6 19 C1.97555889 16.28144896 -2.30960118 16.43097415 -7 17 C-10.33443944 18.45723885 -10.33443944 18.45723885 -13 20 C-13.66 19.67 -14.32 19.34 -15 19 C-14.505 17.515 -14.505 17.515 -14 16 C-11.67328146 15.31060191 -9.33932406 14.64533078 -7 14 C-4.03821099 11.73594013 -3.31469257 9.41691814 -2.375 5.875 C-1.08333333 1.08333333 -1.08333333 1.08333333 0 0 Z " fill="#FBFAFB" transform="translate(301,193)"/>
<path d="M0 0 C3.58875 -0.061875 3.58875 -0.061875 7.25 -0.125 C7.99668945 -0.14320801 8.74337891 -0.16141602 9.51269531 -0.18017578 C13.18758482 -0.21081633 15.930213 -0.10907126 19 2 C21.09679403 4.69587803 20.99510821 6.092944 20.8125 9.5625 C20.03313844 12.85979889 19.65561386 14.03715497 17 16 C18.31061591 20.23429756 19.94356259 24.07407404 22 28 C19.69 28 17.38 28 15 28 C14.32845067 26.71086513 13.66291141 25.41859796 13 24.125 C12.62875 23.40570313 12.2575 22.68640625 11.875 21.9453125 C11 20 11 20 11 18 C9.35 18 7.7 18 6 18 C6 21.3 6 24.6 6 28 C4.02 28 2.04 28 0 28 C0 18.76 0 9.52 0 0 Z " fill="#55C7C4" transform="translate(196,299)"/>
<path d="M0 0 C1.98 0 3.96 0 6 0 C6 9.57 6 19.14 6 29 C0 29 0 29 -1.59912109 27.53125 C-2.18040771 26.52578125 -2.18040771 26.52578125 -2.7734375 25.5 C-3.20527344 24.778125 -3.63710938 24.05625 -4.08203125 23.3125 C-4.50871094 22.549375 -4.93539063 21.78625 -5.375 21 C-5.82488281 20.236875 -6.27476562 19.47375 -6.73828125 18.6875 C-7.8453284 16.80316443 -8.92532412 14.90298337 -10 13 C-10.33 18.28 -10.66 23.56 -11 29 C-12.98 29 -14.96 29 -17 29 C-17 19.76 -17 10.52 -17 1 C-10 1 -10 1 -8.37915039 2.37695312 C-8.03875732 3.00537109 -7.69836426 3.63378906 -7.34765625 4.28125 C-6.96416016 4.95800781 -6.58066406 5.63476562 -6.18554688 6.33203125 C-5.62963867 7.40517578 -5.62963867 7.40517578 -5.0625 8.5 C-4.66482422 9.21542969 -4.26714844 9.93085938 -3.85742188 10.66796875 C-2.88113425 12.43234397 -1.93732433 14.21462033 -1 16 C-0.67 10.72 -0.34 5.44 0 0 Z " fill="#55C7C4" transform="translate(326,298)"/>
<path d="M0 0 C14 0 14 0 20 3 C22.4915904 6.7373856 22.45793285 8.57331583 22 13 C20.20437595 15.75329021 18.94745078 17.52627461 16 19 C14.29297265 19.06996014 12.58331997 19.08440154 10.875 19.0625 C9.26625 19.041875 7.6575 19.02125 6 19 C6 22.3 6 25.6 6 29 C4.02 29 2.04 29 0 29 C0 19.43 0 9.86 0 0 Z " fill="#59C8C5" transform="translate(143,298)"/>
<path d="M0 0 C2.79541984 2.15032295 3.78290603 3.80598316 4.4140625 7.27734375 C4.79182546 13.72913752 3.2280077 18.13138508 -1 23 C-4.11474233 25.70490781 -5.47658882 25.99097567 -9.625 26.0625 C-13 25 -13 25 -15 22.5625 C-16.52242926 17.13884575 -16.51976024 11.97938609 -13.9140625 6.87109375 C-10.00366646 1.19509465 -6.90174425 -0.84758263 0 0 Z " fill="#65DFC2" transform="translate(205,138)"/>
<path d="M0 0 C1.98 0 3.96 0 6 0 C6.02505615 0.69150146 6.0501123 1.38300293 6.07592773 2.09545898 C6.19152161 5.20967866 6.31441242 8.32356789 6.4375 11.4375 C6.47681641 12.52611328 6.51613281 13.61472656 6.55664062 14.73632812 C6.61948242 16.28803711 6.61948242 16.28803711 6.68359375 17.87109375 C6.72025146 18.82943115 6.75690918 19.78776855 6.79467773 20.77514648 C6.75834424 22.97138925 6.75834424 22.97138925 8 24 C10.45809998 24.2500773 10.45809998 24.2500773 13 24 C15.52128356 21.47871644 15.29353069 20.48760987 15.4140625 16.9921875 C15.47207031 15.51298828 15.47207031 15.51298828 15.53125 14.00390625 C15.5621875 12.97136719 15.593125 11.93882812 15.625 10.875 C15.66367188 9.83472656 15.70234375 8.79445313 15.7421875 7.72265625 C15.83664766 5.14861689 15.92221214 2.57458845 16 0 C17.98 0 19.96 0 22 0 C22.11681812 3.54138618 22.187455 7.0822724 22.25 10.625 C22.30027344 12.12353516 22.30027344 12.12353516 22.3515625 13.65234375 C22.43256035 19.76768171 22.14794175 23.37581308 18 28 C15.4712083 29.26439585 13.51141971 29.31139804 10.6875 29.4375 C9.27017578 29.52837891 9.27017578 29.52837891 7.82421875 29.62109375 C4.57314865 28.90612813 2.92953422 27.74221539 0.93530273 25.06567383 C-1.05446545 20.67114796 -0.50149158 15.84688187 -0.3125 11.125 C-0.28994141 10.05507813 -0.26738281 8.98515625 -0.24414062 7.8828125 C-0.18545633 5.25375593 -0.1034118 2.62761418 0 0 Z " fill="#5BC9C6" transform="translate(169,298)"/>
<path d="M0 0 C3.4375 1.6875 3.4375 1.6875 6 4 C6.875 6.75 6.875 6.75 7 9 C4.125 9.1875 4.125 9.1875 1 9 C0.34 8.01 -0.32 7.02 -1 6 C-4.58357241 5.74984127 -4.58357241 5.74984127 -8 6 C-7.87161038 7.9572891 -7.87161038 7.9572891 -7 10 C-4.82458156 11.21661243 -4.82458156 11.21661243 -2.1875 12 C4.78221393 14.57251244 4.78221393 14.57251244 7 18 C7.75187617 21.92646445 7.32320201 23.48733474 5.1875 26.875 C0.54662428 29.96891715 -3.57532072 29.87967772 -9 29 C-12.125 27.3125 -12.125 27.3125 -14 25 C-14.8125 22.25 -14.8125 22.25 -15 20 C-13.02 20 -11.04 20 -9 20 C-8.67 21.32 -8.34 22.64 -8 24 C-5.69 24 -3.38 24 -1 24 C-0.67 22.68 -0.34 21.36 0 20 C-0.84304688 19.60167969 -1.68609375 19.20335937 -2.5546875 18.79296875 C-3.65039062 18.26316406 -4.74609375 17.73335938 -5.875 17.1875 C-6.96554687 16.66542969 -8.05609375 16.14335937 -9.1796875 15.60546875 C-12 14 -12 14 -14 11 C-14.5 8.125 -14.5 8.125 -14 5 C-9.8827485 0.26516077 -6.22825889 -1.33728024 0 0 Z " fill="#58C8C5" transform="translate(351,298)"/>
<path d="M0 0 C3.1747594 2.62543716 5.75226899 6.03230798 6.2734375 10.171875 C6.44454255 14.51531085 6.57574828 18.00930236 3.9375 21.625 C1 24 1 24 -2.5625 24.625 C-6.50087179 23.9089324 -7.63073876 23.15901498 -10 20 C-12.67541412 15.48644164 -12.55492539 11.11856552 -12 6 C-9.31426333 0.01813196 -6.44665372 -0.76485722 0 0 Z " fill="#1C5EC6" transform="translate(305,137)"/>
<path d="M0 0 C6.27 0 12.54 0 19 0 C19 1.32 19 2.64 19 4 C14.71 4 10.42 4 6 4 C6 6.31 6 8.62 6 11 C9.63 11 13.26 11 17 11 C17 12.65 17 14.3 17 16 C13.37 16 9.74 16 6 16 C6 18.31 6 20.62 6 23 C10.29 23 14.58 23 19 23 C19 24.65 19 26.3 19 28 C12.73 28 6.46 28 0 28 C0 18.76 0 9.52 0 0 Z " fill="#54C6C3" transform="translate(221,299)"/>
<path d="M0 0 C3.98066095 1.57724302 5.60667274 2.41000911 8 6 C8 7.32 8 8.64 8 10 C6.02 10 4.04 10 2 10 C1.34 8.68 0.68 7.36 0 6 C-2.91634129 5.7497843 -2.91634129 5.7497843 -6 6 C-8.23465229 9.35197843 -8.27108649 10.57791246 -8.25 14.5 C-8.25515625 15.4590625 -8.2603125 16.418125 -8.265625 17.40625 C-8.17982609 20.23622897 -8.17982609 20.23622897 -6 23 C-2.41642759 23.25015873 -2.41642759 23.25015873 1 23 C1.33 22.01 1.66 21.02 2 20 C3.98 20 5.96 20 8 20 C7.72960418 23.24474984 7.1742292 24.79204902 5.0625 27.3125 C0.69609435 29.71847862 -3.11819487 29.79489919 -8 29 C-12.16541726 26.65695279 -13.52026966 24.43919101 -15 20 C-15.6648304 14.68908739 -15.66364955 10.3272991 -13.25 5.5 C-8.90727414 0.67474905 -6.71042853 -0.69418226 0 0 Z " fill="#58C8C5" transform="translate(269,298)"/>
<path d="M0 0 C6.06151884 5.38801675 8.41036256 13.24274221 9.01904297 21.20019531 C9.11686098 24.21988281 9.14060498 27.22878194 9.125 30.25 C9.12089111 31.84255615 9.12089111 31.84255615 9.11669922 33.46728516 C8.87675198 51.43574802 8.87675198 51.43574802 3.8125 56.5 C2.8125 54.5 2.8125 54.5 3.35791016 52.74682617 C3.64456543 52.04017822 3.9312207 51.33353027 4.2265625 50.60546875 C6.19975512 44.98400721 6.25643647 39.72188753 6.1875 33.8125 C6.19910156 32.80638672 6.21070313 31.80027344 6.22265625 30.76367188 C6.1957894 23.9708354 5.43345436 19.35221504 0.6875 14.1875 C-3.31263002 11.8395976 -6.574324 11.77541349 -11.1875 11.5 C-11.8475 7.54 -12.5075 3.58 -13.1875 -0.5 C-8.33612689 -2.11712437 -4.66829931 -2.19684673 0 0 Z " fill="#2B91DB" transform="translate(311.1875,182.5)"/>
<path d="M0 0 C8.18459134 6.4329876 15.814472 13.472304 23 21 C18.68435017 21 16.91945093 18.35980944 14 15.5 C1.75323395 3.87679288 -11.79471726 -6.65593681 -29.41796875 -6.24609375 C-34.57256909 -5.75480809 -37.19634731 -3.82191752 -40.75 -0.1875 C-44.61290649 5.28495086 -45.32708139 10.49512006 -46 17 C-46.33 17 -46.66 17 -47 17 C-47.05791844 13.87507749 -47.09356746 10.75029234 -47.125 7.625 C-47.14175781 6.73554688 -47.15851563 5.84609375 -47.17578125 4.9296875 C-47.18222656 4.07890625 -47.18867188 3.228125 -47.1953125 2.3515625 C-47.20578613 1.56604004 -47.21625977 0.78051758 -47.22705078 -0.02880859 C-47 -2 -47 -2 -45 -4 C-45 -3.34 -45 -2.68 -45 -2 C-44.46890625 -2.42152344 -43.9378125 -2.84304687 -43.390625 -3.27734375 C-42.68421875 -3.82519531 -41.9778125 -4.37304688 -41.25 -4.9375 C-40.55390625 -5.48277344 -39.8578125 -6.02804688 -39.140625 -6.58984375 C-27.40052537 -14.3237415 -10.13827004 -7.29269072 0 0 Z " fill="#89E3D7" transform="translate(222,184)"/>
<path d="M0 0 C2.5625 0.5 2.5625 0.5 4.875 2.5 C6.98076686 6.24358553 7.26789411 9.34060715 6.5625 13.5 C5.0625 17 5.0625 17 3.5625 19.5 C0.1875 19.6875 0.1875 19.6875 -3.4375 19.5 C-5.80934142 15.94223788 -5.73574394 14.21979393 -5.75 10 C-5.76675781 8.8553125 -5.78351563 7.710625 -5.80078125 6.53125 C-5.4375 3.5 -5.4375 3.5 -4.0703125 1.625 C-2.4375 0.5 -2.4375 0.5 0 0 Z " fill="#F9FDFC" transform="translate(292.4375,302.5)"/>
<path d="M0 0 C1.98 0 3.96 0 6 0 C6 9.57 6 19.14 6 29 C4.02 29 2.04 29 0 29 C0 19.43 0 9.86 0 0 Z " fill="#58C8C5" transform="translate(244,298)"/>
<path d="M0 0 C0 3.55632049 -0.49874564 3.90595887 -2.8515625 6.3984375 C-3.75841797 7.36523438 -3.75841797 7.36523438 -4.68359375 8.3515625 C-5.64458984 9.35316406 -5.64458984 9.35316406 -6.625 10.375 C-7.24246094 11.035 -7.85992187 11.695 -8.49609375 12.375 C-15.10144871 19.35581725 -21.91331478 26.3250776 -31.953125 27.28125 C-39.28397436 27.35801282 -39.28397436 27.35801282 -42 26 C-41.67 26.99 -41.34 27.98 -41 29 C-45.32046898 27.58319756 -48.00461199 25.46236215 -51.3125 22.375 C-52.19550781 21.55773437 -53.07851562 20.74046875 -53.98828125 19.8984375 C-54.65214844 19.27195312 -55.31601563 18.64546875 -56 18 C-55.67 17.34 -55.34 16.68 -55 16 C-54.32453125 16.49371094 -53.6490625 16.98742187 -52.953125 17.49609375 C-51.61507812 18.45708984 -51.61507812 18.45708984 -50.25 19.4375 C-49.36828125 20.07558594 -48.4865625 20.71367187 -47.578125 21.37109375 C-41.71597685 25.07490553 -34.72726823 24.79327325 -28 24 C-17.03759248 19.87926719 -8.32650855 9.78284816 -1 1 C-0.67 0.67 -0.34 0.34 0 0 Z " fill="#E574A1" transform="translate(258,248)"/>
<path d="M0 0 C6.06151884 5.38801675 8.41036256 13.24274221 9.01904297 21.20019531 C9.11686098 24.21988281 9.14060498 27.22878194 9.125 30.25 C9.12089111 31.84255615 9.12089111 31.84255615 9.11669922 33.46728516 C8.87675198 51.43574802 8.87675198 51.43574802 3.8125 56.5 C3.4825 55.84 3.1525 55.18 2.8125 54.5 C3.27785156 53.2934375 3.74320312 52.086875 4.22265625 50.84375 C6.37766338 44.69712384 6.29901208 38.50736959 6.25854492 32.07080078 C6.2500133 30.00322429 6.27891193 27.93840038 6.31054688 25.87109375 C6.35747403 16.96022329 5.53877956 9.86507035 -0.375 2.9375 C-4.332342 0.91485853 -7.82826192 1.15809897 -12.1875 1.5 C-12.5175 0.84 -12.8475 0.18 -13.1875 -0.5 C-8.33612689 -2.11712437 -4.66829931 -2.19684673 0 0 Z " fill="#79B9E9" transform="translate(311.1875,182.5)"/>
<path d="M0 0 C2.5625 1.5625 2.5625 1.5625 4 3 C4.66 2.34 5.32 1.68 6 1 C6 4.96 6 8.92 6 13 C5.67 13 5.34 13 5 13 C4.79375 11.906875 4.5875 10.81375 4.375 9.6875 C3.33914363 5.86619937 3.33914363 5.86619937 0.3125 4.0625 C-5.44815886 2.2147415 -10.21809771 2.51098942 -15.83984375 4.83984375 C-24.44991961 9.46406171 -31.29507278 17.03828833 -38 24 C-38 21 -38 21 -35.62109375 18.29296875 C-34.56865051 17.24891285 -33.50687776 16.2142038 -32.4375 15.1875 C-31.88465332 14.64996094 -31.33180664 14.11242187 -30.76220703 13.55859375 C-29.66740353 12.50008031 -28.56854205 11.44574514 -27.46533203 10.39599609 C-26.29696957 9.2829177 -25.14384127 8.15385482 -23.99609375 7.01953125 C-17.32370253 0.76516936 -9.03594762 -2.65005388 0 0 Z " fill="#FC7E59" transform="translate(305,216)"/>
<path d="M0 0 C0.33 0 0.66 0 1 0 C2.33333333 4 3.66666667 8 5 12 C4.10375977 13.62573242 4.10375977 13.62573242 2.69140625 15.35546875 C2.19189453 15.97744141 1.69238281 16.59941406 1.17773438 17.24023438 C0.64470703 17.88283203 0.11167969 18.52542969 -0.4375 19.1875 C-0.96666016 19.84169922 -1.49582031 20.49589844 -2.04101562 21.16992188 C-3.35152928 22.78740269 -4.67460942 24.39468693 -6 26 C-7.09658936 22.71023192 -6.79953138 21.28696233 -6 18 C-5.34 18 -4.68 18 -4 18 C-3.87882812 17.28714844 -3.75765625 16.57429688 -3.6328125 15.83984375 C-2.68936031 10.44765159 -1.62637791 5.22764328 0 0 Z " fill="#CC1D61" transform="translate(309,234)"/>
<path d="M0 0 C10.01161548 2.931659 17.28427468 8.65947751 24.66796875 15.78125 C26.07795937 16.99736691 27.49419989 18.20629329 28.91796875 19.40625 C32.57170247 22.57727499 35.61053227 26.03589032 38.66796875 29.78125 C34.78239313 28.18292811 32.08765618 25.52027346 29.10546875 22.65625 C19.06361226 13.26225522 8.2536307 5.02999525 -5.33203125 1.78125 C-2.33203125 -0.21875 -2.33203125 -0.21875 0 0 Z " fill="#79D9DD" transform="translate(206.33203125,176.21875)"/>
<path d="M0 0 C6.625 -0.25 6.625 -0.25 10 2 C10.3125 4.5 10.3125 4.5 10 7 C8 9 8 9 6.0546875 9.1953125 C4.03645833 9.13020833 2.01822917 9.06510417 0 9 C0 6.03 0 3.06 0 0 Z " fill="#F4FBFB" transform="translate(149,303)"/>
<path d="M0 0 C6.39075249 -0.36174071 6.39075249 -0.36174071 9 1.1875 C10 3 10 3 9.8125 5.625 C9 8 9 8 7 9 C4.6670134 9.04022391 2.33293334 9.04320247 0 9 C0 6.03 0 3.06 0 0 Z " fill="#E8F7F7" transform="translate(201,303)"/>
<path d="M0 0 C6.68409586 3.72766885 6.68409586 3.72766885 8.8125 5.5625 C11.73677328 7.4841653 14.29719834 7.73863578 17.75 8.1875 C18.92046875 8.34605469 20.0909375 8.50460937 21.296875 8.66796875 C22.18890625 8.77753906 23.0809375 8.88710938 24 9 C24 9.33 24 9.66 24 10 C16.25 11.125 16.25 11.125 14 10 C14.33 10.99 14.66 11.98 15 13 C10.73439116 11.58581617 7.9940014 9.51748869 4.6875 6.5 C3.80449219 5.7059375 2.92148438 4.911875 2.01171875 4.09375 C0 2 0 2 0 0 Z " fill="#DA71A7" transform="translate(202,264)"/>
<path d="M0 0 C0.33 0 0.66 0 1 0 C1.03738281 0.96679688 1.07476562 1.93359375 1.11328125 2.9296875 C1.47191226 10.03198794 1.97988898 16.31272807 4.4765625 23.046875 C5 25 5 25 4 28 C2.96971956 25.54524486 1.95054496 23.08685649 0.9375 20.625 C0.64294922 19.92632812 0.34839844 19.22765625 0.04492188 18.5078125 C-0.69591098 16.69495092 -1.35396964 14.84876857 -2 13 C-1.67 12.34 -1.34 11.68 -1 11 C-0.7724985 9.12943209 -0.59037189 7.25314042 -0.4375 5.375 C-0.35371094 4.37210938 -0.26992187 3.36921875 -0.18359375 2.3359375 C-0.12300781 1.56507813 -0.06242188 0.79421875 0 0 Z " fill="#73D7DF" transform="translate(182,205)"/>
<path d="M0 0 C7.74513747 1.34249049 13.28776671 9.22751422 18 15 C13.93122232 13.34890181 11.02285879 10.46404222 7.875 7.5 C7.33746094 7.00113281 6.79992187 6.50226563 6.24609375 5.98828125 C4.13236554 4.02214504 2.04136111 2.04136111 0 0 Z " fill="#71D0D7" transform="translate(227,191)"/>
<path d="M0 0 C4.28477792 2.30718811 7.72291137 4.32966073 11 8 C8.875 8.375 8.875 8.375 6 8 C3.70260359 6.25677649 1.73666661 4.30361963 0 2 C0 1.34 0 0.68 0 0 Z " fill="#E18FBA" transform="translate(202,264)"/>
<path d="M0 0 C0 0.33 0 0.66 0 1 C-1.10408203 1.18175781 -1.10408203 1.18175781 -2.23046875 1.3671875 C-3.20628906 1.53476563 -4.18210937 1.70234375 -5.1875 1.875 C-6.15042969 2.03742188 -7.11335938 2.19984375 -8.10546875 2.3671875 C-10.91032604 2.98039517 -13.37224747 3.85666343 -16 5 C-15.67 3.68 -15.34 2.36 -15 1 C-9.4584498 -0.96263236 -5.79141983 -1.01603857 0 0 Z " fill="#F8E9DE" transform="translate(302,208)"/>
<path d="M0 0 C0.66 0.33 1.32 0.66 2 1 C0.92598892 3.91517292 0.22189824 5.77810176 -2 8 C-2.66 7.01 -3.32 6.02 -4 5 C-2.25 1.125 -2.25 1.125 0 0 Z " fill="#5AAAE4" transform="translate(316,237)"/>
<path d="M0 0 C0.66 0.33 1.32 0.66 2 1 C2 1.66 2 2.32 2 3 C0.46875 4.2890625 0.46875 4.2890625 -1.5 5.625 C-2.1496875 6.07101563 -2.799375 6.51703125 -3.46875 6.9765625 C-3.9740625 7.31429687 -4.479375 7.65203125 -5 8 C-5.33 7.01 -5.66 6.02 -6 5 C-4.02 3.35 -2.04 1.7 0 0 Z " fill="#7BE1D0" transform="translate(185,176)"/>
<path d="M0 0 C0.33 0 0.66 0 1 0 C1 3.96 1 7.92 1 12 C0.67 12 0.34 12 0 12 C-0.433125 10.3603125 -0.433125 10.3603125 -0.875 8.6875 C-1.81893204 4.95986155 -1.81893204 4.95986155 -4 2 C-3.01 2 -2.02 2 -1 2 C-0.67 1.34 -0.34 0.68 0 0 Z " fill="#FD945D" transform="translate(310,217)"/>
<path d="M0 0 C0.99 1.32 1.98 2.64 3 4 C-0.96 5.98 -0.96 5.98 -5 8 C-3.8141763 4.62496331 -2.72426311 2.35277269 0 0 Z " fill="#30A4A0" transform="translate(280,202)"/>
<path d="M0 0 C-1.45255699 3.82946843 -3.42895561 5.12050295 -7 7 C-3.86206897 0 -3.86206897 0 0 0 Z " fill="#BDEEEC" transform="translate(191,193)"/>
<path d="M0 0 C1.485 0.99 1.485 0.99 3 2 C2.01 4.31 1.02 6.62 0 9 C-1.10844919 5.67465243 -0.84454356 3.37817425 0 0 Z " fill="#339AE0" transform="translate(318,229)"/>
<path d="M0 0 C5.66153846 1.47692308 5.66153846 1.47692308 7.375 4.125 C7.684375 5.053125 7.684375 5.053125 8 6 C4.08597051 4.73058503 2.20927127 3.48832306 0 0 Z " fill="#D35597" transform="translate(209,271)"/>
</svg>
